<!-- Icons made by <a href="https://www.flaticon.com/authors/freepik" title="Freepik">Freepik</a> from <a href="https://www.flaticon.com/" title="Flaticon"> www.flaticon.com</a> -->
<svg id="Capa_1" enable-background="new 0 0 512.025 512.025" height="512" viewBox="0 0 512.025 512.025" width="512" xmlns="http://www.w3.org/2000/svg"><g><circle cx="131.241" cy="401.687" fill="#fae0bd" r="52.838"/><circle cx="252.135" cy="464.734" fill="#fae0bd" r="39.791"/><path d="m417.001 142.763c0-.101.004-.201.004-.303 0-74.522-60.412-134.935-134.935-134.935-21.795 0-42.379 5.173-60.601 14.351-4.849 2.442-10.398 2.999-15.641 1.588-10.23-2.754-20.986-4.225-32.085-4.225-74.045 0-130.302 64.527-122.566 136.241.894 8.289-3.305 16.25-10.45 20.545-19.894 11.96-33.208 33.743-33.208 58.647 0 31.824 21.732 58.571 51.165 66.213 6.317 1.64 11.573 5.959 14.322 11.878 21.435 46.162 68.201 78.173 122.447 78.173 22.108 0 42.971-5.322 61.385-14.749 8.074-4.133 17.619-3.909 25.568.459 19.502 10.715 41.937 16.752 65.797 16.592 73.426-.492 133.446-60.453 134.006-133.879.377-49.444-25.844-92.792-65.208-116.596z" fill="#fbf1cf"/><path d="m466.584 251.393c27.544-4.857 44.371-33.016 35.599-59.573l-13.211-39.999c-6.192-18.748-25.206-30.11-44.65-26.682-19.444 3.428-33.425 20.609-32.832 40.344l1.266 42.105c.842 27.956 26.285 48.661 53.828 43.805z" fill="#7c93dd"/><ellipse cx="332.086" cy="205.061" fill="#8eafe2" rx="132.244" ry="112.826"/><g><g fill="#fff"><ellipse cx="259.019" cy="232.452" rx="30.834" ry="24.555"/><ellipse cx="426.149" cy="232.452" rx="30.834" ry="24.555"/></g></g><path d="m186.488 251.393c-27.544-4.857-44.371-33.016-35.599-59.573l13.211-39.999c6.192-18.748 25.206-30.11 44.65-26.682 19.444 3.428 33.425 20.609 32.832 40.344l-1.266 42.105c-.842 27.956-26.285 48.661-53.828 43.805z" fill="#7c93dd"/><path d="m390.692 50.039c-5.234.81-10.576-.675-14.734-3.955-12.513-9.868-29.264-15.902-47.673-15.902-26.559 0-49.655 12.563-61.559 31.08-2.482 3.862-7.186 5.582-11.63 4.428-5.592-1.452-11.525-2.237-17.675-2.237-33.47 0-60.603 23.081-60.603 51.552 0 28.472 27.133 51.552 60.603 51.552 19.758 0 37.3-8.047 48.361-20.495 2.94-3.309 7.671-4.292 11.757-2.591 9.283 3.864 19.713 6.039 30.745 6.039 9.771 0 19.07-1.705 27.519-4.779 5.072-1.845 10.654-1.656 15.502.716 8.871 4.341 19.153 6.828 30.122 6.828 33.45 0 60.567-23.067 60.567-51.522.002-32.924-35.211-56.3-71.302-50.714z" fill="#fbf1cf"/><path d="m333.156 30.341c-1.611-.094-3.232-.159-4.871-.159-26.559 0-49.655 12.563-61.559 31.08-2.482 3.862-7.186 5.582-11.63 4.428-5.592-1.452-11.525-2.237-17.676-2.237-33.47 0-60.603 23.081-60.603 51.552 0 28.472 27.133 51.552 60.603 51.552 19.758 0 37.3-8.047 48.362-20.495 2.94-3.309 7.67-4.292 11.757-2.592 9.283 3.864 19.713 6.039 30.745 6.039 7.786 0 15.264-1.099 22.259-3.094-43.326-17.607-52.831-87.44-17.387-116.074z" fill="#fae0bd"/><path d="m239.691 383.501c-61.972-5.994-69.076-57.004-61.556-80.66 1.8-5.662-1.308-11.691-6.87-13.781-38.782-14.572-47.094-68.386-37.314-92.293 2.021-4.94.329-10.634-4.117-13.587-42.785-28.415-52.02-116.449 6.142-158.064-54.355 17.452-91.15 71.479-84.798 130.361.883 8.189-3.016 16.136-10.1 20.337-20.089 11.916-33.559 33.809-33.559 58.859 0 31.824 21.732 58.57 51.164 66.213 6.317 1.64 11.574 5.959 14.322 11.879 21.435 46.161 68.201 78.172 122.446 78.172 15.499 0 30.381-2.624 44.24-7.436z" fill="#fae0bd"/><path d="m252.135 417.443c-26.077 0-47.292 21.215-47.292 47.292 0 26.076 21.215 47.291 47.292 47.291 26.076 0 47.291-21.215 47.291-47.291 0-26.077-21.215-47.292-47.291-47.292zm0 79.582c-17.806 0-32.292-14.486-32.292-32.291 0-17.806 14.486-32.292 32.292-32.292s32.291 14.486 32.291 32.292c0 17.805-14.485 32.291-32.291 32.291zm112.671-294.239c-3.124-2.721-7.862-2.396-10.582.727-2.939 3.372-7.181 5.306-11.64 5.306s-8.701-1.934-11.64-5.306c-2.723-3.122-7.461-3.447-10.582-.727-3.122 2.722-3.448 7.459-.727 10.582 5.788 6.642 14.152 10.451 22.948 10.451s17.16-3.809 22.948-10.451c2.723-3.124 2.397-7.861-.725-10.582zm144.5-13.319-13.212-39.999c-4.759-14.411-16.065-25.45-30.099-30.07 2.258-5.865 3.5-12.13 3.5-18.644 0-38.211-39.98-64.31-79.95-58.126-2.44.378-4.969-.097-7.188-1.294-44.847-44.491-111.301-52.829-164.262-26.156-3.187 1.605-6.851 1.977-10.317 1.044-43.966-11.834-93.559-.54-128.306 35.707-2.866 2.99-2.767 7.738.224 10.604 2.981 2.857 7.729 2.776 10.604-.224 30.762-32.091 74.715-42.061 113.579-31.602 7.03 1.892 14.475 1.135 20.964-2.132 32.746-16.492 69.645-17.308 101.017-5.856-27.233.735-52.147 13.806-65.443 34.489-.698 1.084-2.074 1.576-3.436 1.225-50.063-13.008-97.725 25.887-85.873 69.978-6.499 5.579-11.433 12.889-14.132 21.059l-13.211 39.999c-12.708 38.482 20.563 76.697 60.533 69.199 18.501 37.599 59.632 66.721 127.788 66.721 52.897 0 103.577-18.536 127.291-65.815 5.498-.079 10.358-.913 15.32-2.48.361 37.005-15.599 72.348-43.425 96.84-3.109 2.737-3.411 7.475-.675 10.585 2.74 3.114 7.48 3.408 10.585.675 32.329-28.455 50.926-70.629 48.266-115.417 19.142-13.549 27.232-37.984 19.858-60.31zm-256.096-116.517c7.642 1.985 15.613-1.08 19.824-7.631 19.663-30.589 68.443-36.877 98.279-13.345 5.829 4.598 13.309 6.595 20.526 5.478 30.617-4.739 62.655 14.426 62.655 43.303 0 34.046-44.826 55.117-79.893 37.957-6.554-3.206-14.341-3.582-21.363-1.028-16.295 5.929-35.719 5.981-52.818-1.136-7.08-2.948-15.217-1.124-20.245 4.534-10.003 11.257-25.985 17.978-42.755 17.978-28.414 0-53.104-19.11-53.104-44.052.002-30.063 35.305-50.789 68.894-42.058zm-65.42 171.056c-23.044-4.062-37.112-27.641-29.78-49.835l13.211-39.999c1.369-4.145 3.516-7.872 6.311-11.071 11.001 17.561 31.978 29.77 56.29 30.873l-1.005 33.388c-.703 23.435-22.056 40.701-45.027 36.644zm238.334 35.331c-21.945 20.313-54.463 31.05-94.038 31.05-46.699 0-92.257-15.392-113.471-56.578 17.43-8.851 28.609-26.481 29.196-45.995l1.04-34.583c16.804-2.439 31.905-10.221 42.537-22.186.78-.878 2.094-1.138 3.269-.649 20.426 8.501 43.721 8.656 63.71 1.384 3.261-1.186 6.686-1.042 9.642.405 21.574 10.556 48.832 10.295 70.524-1.988 11.98 16.505 18.297 35.341 18.297 54.864 0 28.979-9.983 55.094-30.706 74.276zm39.693-35.44c3.956-12.13 6.013-25.197 6.013-38.836 0-22.724-7.298-44.574-21.137-63.643 2.889-2.631 5.501-5.489 7.797-8.544 10.866 2.512 19.8 10.516 23.361 21.299l13.211 39.999c7.254 21.96-6.438 45.369-29.245 49.725zm-188.828-54.884c-4.143 0-7.5 3.358-7.5 7.5v12c0 4.142 3.357 7.5 7.5 7.5s7.5-3.358 7.5-7.5v-12c0-4.142-3.358-7.5-7.5-7.5zm133.507-2.241c-11.804 0-21.406 9.603-21.406 21.406 0 4.142 3.357 7.5 7.5 7.5s7.5-3.358 7.5-7.5c0-3.532 2.874-6.406 6.406-6.406s6.406 2.874 6.406 6.406c0 4.142 3.357 7.5 7.5 7.5s7.5-3.358 7.5-7.5c0-11.803-9.603-21.406-21.406-21.406zm-6.699 185.662c-38.516 19.228-82.716 16.906-117.781-2.361-10.175-5.591-22.362-5.8-32.598-.562-64.381 32.961-143.358 5.247-173.61-59.906-3.685-7.937-10.697-13.761-19.239-15.979-26.819-6.964-45.55-31.207-45.55-58.954 0-21.566 11.055-41.087 29.572-52.22 9.721-5.843 15.233-16.747 14.043-27.777-2.445-22.673 1.855-45.359 12.437-65.605 1.919-3.671.499-8.202-3.173-10.121-3.67-1.918-8.203-.499-10.12 3.173-11.962 22.885-16.822 48.53-14.059 74.163.566 5.243-2.126 10.468-6.857 13.313-23.07 13.869-36.844 38.196-36.844 65.075 0 34.579 23.349 64.792 56.78 73.472 4.186 1.087 7.613 3.922 9.403 7.778 6.738 14.511 15.837 27.683 26.854 39.072-13.853 11.363-22.154 28.509-22.154 46.691 0 33.271 27.067 60.338 60.338 60.338 34.651 0 62.163-29.231 60.243-63.659 24.297.669 47.46-4.592 68.769-15.501 5.801-2.968 12.732-2.835 18.54.356 39.785 21.861 89.182 23.863 131.703 2.635 3.706-1.85 5.211-6.354 3.36-10.061-1.847-3.706-6.354-5.208-10.057-3.36zm-272.556 74.59c-24.999 0-45.338-20.338-45.338-45.338 0-14.356 6.903-27.844 18.288-36.344 21.345 17.818 46.331 28.331 72.149 31.8 2.713 26.76-18.407 49.882-45.099 49.882z"/></g></svg>